M48
; DRILL file KiCad 10.0.3 date 2026-06-12T11:11:27
; FORMAT={-:-/ absolute / metric / decimal}
; #@! TF.CreationDate,2026-06-12T11:11:27+05:30
; #@! TF.GenerationSoftware,Kicad,Pcbnew,10.0.3
; #@! TF.FileFunction,Plated,1,2,PTH
FMAT,2
METRIC
; #@! TA.AperFunction,Plated,PTH,ComponentDrill
T1C0.600
; #@! TA.AperFunction,Plated,PTH,ComponentDrill
T2C0.800
; #@! TA.AperFunction,Plated,PTH,ComponentDrill
T3C1.000
%
G90
G05
T1
X92.5Y-90.5
X92.5Y-96.0
X92.5Y-101.55
X94.0Y-90.5
X94.0Y-96.0
X94.0Y-101.55
T2
X100.0Y-96.56
X100.0Y-101.44
X105.76Y-66.74
X105.76Y-69.28
X105.76Y-71.82
X105.76Y-74.36
X105.76Y-76.9
X105.76Y-79.44
X105.76Y-81.98
X105.76Y-84.52
X105.76Y-87.06
X105.76Y-89.6
X105.76Y-92.14
X105.76Y-94.68
X105.76Y-97.22
X105.76Y-99.76
X105.76Y-102.3
X105.76Y-104.84
X105.76Y-107.38
X105.76Y-109.92
X105.76Y-112.46
X105.76Y-115.0
X121.0Y-66.74
X121.0Y-69.28
X121.0Y-71.82
X121.0Y-74.36
X121.0Y-76.9
X121.0Y-79.44
X121.0Y-81.98
X121.0Y-84.52
X121.0Y-87.06
X121.0Y-89.6
X121.0Y-92.14
X121.0Y-94.68
X121.0Y-97.22
X121.0Y-99.76
X121.0Y-102.3
X121.0Y-104.84
X121.0Y-107.38
X121.0Y-109.92
X121.0Y-112.46
X121.0Y-115.0
T3
X88.5Y-84.92
X88.5Y-87.46
X88.5Y-90.0
X88.5Y-92.54
X88.5Y-95.08
X88.5Y-97.62
X88.5Y-100.16
X88.5Y-102.7
X94.88Y-119.5
X97.42Y-119.5
X99.0Y-68.88
X99.0Y-71.42
X99.0Y-73.96
X99.0Y-76.5
X99.0Y-79.04
X99.0Y-81.58
X99.0Y-84.12
X99.0Y-86.66
X99.96Y-119.5
X102.5Y-119.5
X105.04Y-119.5
X105.46Y-61.0
X107.58Y-119.5
X108.0Y-61.0
X110.12Y-119.5
X110.54Y-61.0
X112.66Y-119.5
X113.08Y-61.0
X115.62Y-61.0
X118.16Y-61.0
X128.0Y-66.88
X128.0Y-69.42
X128.0Y-71.96
X128.0Y-74.5
X128.0Y-77.04
X128.0Y-79.58
X128.0Y-82.12
X128.0Y-84.66
X128.0Y-93.46
X128.0Y-96.0
X128.0Y-98.54
X128.0Y-101.08
X128.0Y-103.62
X128.0Y-106.16
X128.0Y-108.7
X128.0Y-111.24
M30
